<svg width="24" height="24" viewBox="0 0 24 24" fill="none" xmlns="http://www.w3.org/2000/svg">
<circle cx="12" cy="12" r="12" fill="#F0B24B"/>
<path d="M14.9455 16.043C15.4732 15.5153 15.7496 14.7868 15.705 14.042C15.6603 13.2969 15.299 12.6068 14.7121 12.1457L14.5091 11.9864L14.7135 11.8285C14.7949 11.7655 14.8724 11.6974 14.9452 11.6246C15.6929 10.8778 15.9167 9.75408 15.5124 8.77771C15.1081 7.80142 14.1552 7.165 13.0985 7.16539H12.8976V6.36182H12.094V7.16539H10.8887V6.36182H10.0851V7.16539H8.07617V7.96896H8.87974V16.0047H8.07617V16.8082H10.0851V17.6118H10.8887V16.8082H12.094V17.6118H12.8976V16.8082H13.0985C13.7915 16.8093 14.4562 16.534 14.9455 16.043ZM9.68331 7.96896H13.0985C14.0971 7.96896 14.9065 8.77842 14.9065 9.77699C14.9065 10.7756 14.0971 11.585 13.0985 11.585H9.68331V7.96896ZM9.68331 16.0047V12.3886H13.0985C14.0971 12.3886 14.9065 13.1981 14.9065 14.1966C14.9065 15.1952 14.0971 16.0047 13.0985 16.0047H9.68331Z" fill="white"/>
</svg>