<svg width="24" height="24" viewBox="0 0 24 24" fill="none" xmlns="http://www.w3.org/2000/svg">
<circle cx="12" cy="12" r="12" fill="#DD3327"/>
<path d="M7.26345 12.1201C7.81353 12.1111 8.18025 12.048 8.36361 11.9308C8.65518 11.7444 8.80097 11.3431 8.80097 10.7269C8.80097 10.3061 8.73033 9.9664 8.58905 9.70789C8.44777 9.44938 8.17724 9.32013 7.77746 9.32013C7.5941 9.32013 7.46184 9.34267 7.38068 9.38776C7.30252 9.42984 7.26345 9.51401 7.26345 9.64026V12.1201ZM5 15.0058C5.3036 14.9848 5.50649 14.9216 5.6087 14.8164C5.7139 14.7082 5.76651 14.4903 5.76651 14.1626V10.0821C5.76651 9.73344 5.7139 9.51401 5.6087 9.42383C5.50349 9.33065 5.30059 9.26753 5 9.23446V9H7.97134C8.75888 9 9.35706 9.12775 9.76586 9.38325C10.1777 9.63875 10.3836 10.0776 10.3836 10.6998C10.3836 11.0034 10.3024 11.289 10.1401 11.5565C9.98078 11.821 9.71626 12.0345 9.34654 12.1968C9.06699 12.311 8.78744 12.3801 8.50789 12.4042C8.22834 12.4282 7.81353 12.4403 7.26345 12.4403V14.1626C7.26345 14.5023 7.32056 14.7247 7.43478 14.83C7.54901 14.9352 7.76243 14.9938 8.07504 15.0058V15.2403H5V15.0058Z" fill="white"/>
<path d="M10.6225 15.0058C10.9742 15.0028 11.2027 14.9412 11.3079 14.8209C11.4131 14.6977 11.4657 14.5143 11.4657 14.2709V9.88824C11.4657 9.63575 11.4056 9.47042 11.2853 9.39227C11.1651 9.31111 10.9517 9.25851 10.6451 9.23446V9H12.9717L14.7887 13.2744H14.8654L16.6734 9H19V9.23446C18.6874 9.25851 18.474 9.31712 18.3597 9.41031C18.2455 9.50048 18.1884 9.72442 18.1884 10.0821V14.1626C18.1884 14.5023 18.2455 14.7247 18.3597 14.83C18.474 14.9352 18.6874 14.9938 19 15.0058V15.2403H15.934V15.0058C16.2075 14.9968 16.4134 14.9517 16.5517 14.8705C16.69 14.7864 16.7591 14.6045 16.7591 14.325V9.81159H16.6915L14.428 15.2403H14.18L11.894 9.91981H11.8535V14.0995C11.8535 14.4061 11.9106 14.6301 12.0248 14.7713C12.139 14.9126 12.3915 14.9908 12.7823 15.0058V15.2403H10.6225V15.0058Z" fill="white"/>
</svg>