<svg
        xmlns="http://www.w3.org/2000/svg"
        xmlns:xlink="http://www.w3.org/1999/xlink"
        width="1204px" height="345px">
    <defs>
        <linearGradient id="PSgrad_0" x1="0%" x2="17.365%" y1="0%" y2="98.481%">
            <stop offset="0%" stop-color="rgb(80,53,120)" stop-opacity="1" />
            <stop offset="100%" stop-color="rgb(59,170,172)" stop-opacity="1" />
        </linearGradient>

    </defs>
    <path fill-rule="evenodd"  fill="rgb(254, 254, 254)"
          d="M690.808,246.349 L621.585,151.664 L621.585,246.349 L598.311,246.349 L598.311,113.671 L622.182,113.671 L690.013,205.770 L690.013,113.671 L713.286,113.671 L713.286,246.349 L690.808,246.349 ZM546.794,113.671 L570.068,113.671 L570.068,246.349 L546.794,246.349 L546.794,113.671 ZM456.485,248.736 C436.724,248.736 420.481,242.271 407.750,229.342 C395.020,216.412 388.654,200.001 388.654,180.109 C388.654,160.218 395.020,143.807 407.750,130.877 C420.481,117.947 436.724,111.483 456.485,111.483 C476.244,111.483 492.490,117.947 505.220,130.877 C517.951,143.807 524.316,160.218 524.316,180.109 C524.316,200.001 517.951,216.412 505.220,229.342 C492.490,242.271 476.244,248.736 456.485,248.736 ZM488.312,145.697 C480.222,136.680 469.614,132.170 456.485,132.170 C443.223,132.170 432.581,136.680 424.559,145.697 C416.534,154.716 412.524,166.185 412.524,180.109 C412.524,194.034 416.534,205.506 424.559,214.522 C432.581,223.542 443.223,228.049 456.485,228.049 C469.614,228.049 480.222,223.508 488.312,214.423 C496.400,205.341 500.446,193.903 500.446,180.109 C500.446,166.185 496.400,154.716 488.312,145.697 ZM322.615,228.049 C329.642,228.049 336.142,226.258 342.109,222.678 C348.077,219.097 352.717,214.457 356.033,208.754 L375.925,218.898 C363.194,238.790 345.422,248.736 322.615,248.736 C302.723,248.736 286.145,242.340 272.886,229.541 C259.623,216.745 252.994,200.268 252.994,180.109 C252.994,159.953 259.623,143.477 272.886,130.678 C286.145,117.882 302.723,111.483 322.615,111.483 C345.690,111.483 363.459,121.429 375.925,141.320 L356.033,151.465 C352.717,145.765 348.042,141.121 342.010,137.541 C335.974,133.960 329.509,132.170 322.615,132.170 C309.486,132.170 298.577,136.680 289.893,145.697 C281.206,154.716 276.864,166.185 276.864,180.109 C276.864,194.034 281.206,205.506 289.893,214.522 C298.577,223.542 309.486,228.049 322.615,228.049 Z"/>
    <path fill-rule="evenodd"  fill="url(#PSgrad_0)"
          d="M261.864,80.884 C238.842,58.669 207.519,45.000 173.000,45.000 C102.308,45.000 45.000,102.308 45.000,173.000 C45.000,208.190 59.200,240.063 82.183,263.202 C82.950,263.973 82.000,172.000 82.000,172.000 C82.000,172.000 77.662,108.953 147.000,91.000 C200.649,77.109 231.000,112.000 231.000,112.000 L201.000,142.000 C201.000,142.000 173.365,120.362 144.000,137.000 C120.425,150.357 125.000,177.000 125.000,177.000 L212.000,177.000 L212.000,217.000 L124.000,217.000 L124.628,291.544 L125.000,291.691 L125.000,338.374 C52.830,317.746 -0.000,251.294 -0.000,172.500 C-0.000,77.231 77.231,-0.000 172.500,-0.000 C218.435,-0.000 260.173,17.959 291.086,47.234 L261.864,80.884 ZM173.644,300.984 C207.064,300.819 237.452,287.853 260.158,266.730 L290.548,298.267 C259.689,327.243 218.171,345.000 172.500,345.000 C172.479,345.000 172.459,344.999 172.438,344.999 L173.644,300.984 Z"/>
    <path fill-rule="evenodd"  fill="rgb(255, 255, 255)"
          d="M1203.037,225.861 L1203.037,246.349 L1112.131,246.349 L1112.131,113.671 L1203.037,113.671 L1203.037,134.159 L1135.405,134.159 L1135.405,168.572 L1201.645,168.572 L1201.645,189.061 L1135.405,189.061 L1135.405,225.861 L1203.037,225.861 ZM989.600,227.452 L1057.431,134.159 L989.600,134.159 L989.600,113.671 L1087.667,113.671 L1087.667,132.568 L1019.836,225.861 L1089.059,225.861 L1089.059,246.349 L989.600,246.349 L989.600,227.452 ZM909.437,248.736 C890.605,248.736 876.317,243.832 866.570,234.016 C856.823,224.204 851.950,210.876 851.950,194.034 L851.950,113.671 L875.422,113.671 L875.422,193.238 C875.422,203.980 878.372,212.468 884.274,218.700 C890.173,224.934 898.562,228.049 909.437,228.049 C920.309,228.049 928.664,224.934 934.501,218.700 C940.335,212.468 943.253,203.980 943.253,193.238 L943.253,113.671 L966.725,113.671 L966.725,193.835 C966.725,210.811 961.852,224.204 952.105,234.016 C942.358,243.832 928.135,248.736 909.437,248.736 ZM763.432,168.572 L829.671,168.572 L829.671,189.061 L763.432,189.061 L763.432,246.349 L740.158,246.349 L740.158,113.671 L831.064,113.671 L831.064,134.159 L763.432,134.159 L763.432,168.572 Z"/>
</svg>
